<?xml version="1.0" encoding="UTF-8" standalone="no"?>
<!DOCTYPE svg PUBLIC "-//W3C//DTD SVG 1.1//EN"
 "http://www.w3.org/Graphics/SVG/1.1/DTD/svg11.dtd">
<!-- Generated by graphviz version 2.40.1 (20161225.0304)
 -->
<!-- Title: dependencies Pages: 1 -->
<svg width="1113pt" height="284pt"
 viewBox="0.00 0.00 1113.00 284.00" xmlns="http://www.w3.org/2000/svg" xmlns:xlink="http://www.w3.org/1999/xlink">
<g id="graph0" class="graph" transform="scale(1 1) rotate(0) translate(4 280)">
<title>dependencies</title>
<polygon fill="#ffffff" stroke="transparent" points="-4,4 -4,-280 1109,-280 1109,4 -4,4"/>
<text text-anchor="start" x="531.5091" y="-42.4" font-family="sans-serif" font-weight="bold" font-size="14.00" fill="#000000">Legend</text>
<polygon fill="#ffffb3" stroke="transparent" points="318.5,-10 318.5,-30 338.5,-30 338.5,-10 318.5,-10"/>
<text text-anchor="start" x="342.129" y="-15.4" font-family="sans-serif" font-size="14.00" fill="#000000"> &#160;Declarations</text>
<polygon fill="#8dd3c7" stroke="transparent" points="431.5,-10 431.5,-30 451.5,-30 451.5,-10 431.5,-10"/>
<text text-anchor="start" x="455.2251" y="-15.4" font-family="sans-serif" font-size="14.00" fill="#000000"> &#160;Module</text>
<polygon fill="#80b1d3" stroke="transparent" points="517.5,-10 517.5,-30 537.5,-30 537.5,-10 517.5,-10"/>
<text text-anchor="start" x="541.2812" y="-15.4" font-family="sans-serif" font-size="14.00" fill="#000000"> &#160;Bootstrap</text>
<polygon fill="#fdb462" stroke="transparent" points="614.5,-10 614.5,-30 634.5,-30 634.5,-10 614.5,-10"/>
<text text-anchor="start" x="638.1732" y="-15.4" font-family="sans-serif" font-size="14.00" fill="#000000"> &#160;Providers</text>
<polygon fill="#fb8072" stroke="transparent" points="710.5,-10 710.5,-30 730.5,-30 730.5,-10 710.5,-10"/>
<text text-anchor="start" x="734.2258" y="-15.4" font-family="sans-serif" font-size="14.00" fill="#000000"> &#160;Exports</text>
<g id="clust1" class="cluster">
<title>cluster_AppModule</title>
<polygon fill="none" stroke="#000000" stroke-dasharray="1,5" points="8,-70 8,-268 1097,-268 1097,-70 8,-70"/>
</g>
<g id="clust2" class="cluster">
<title>cluster_AppModule_declarations</title>
<polygon fill="none" stroke="#000000" points="186,-78 186,-130 1089,-130 1089,-78 186,-78"/>
</g>
<g id="clust11" class="cluster">
<title>cluster_AppModule_bootstrap</title>
<polygon fill="none" stroke="#000000" points="555,-208 555,-260 679,-260 679,-208 555,-208"/>
</g>
<g id="clust12" class="cluster">
<title>cluster_AppModule_providers</title>
<polygon fill="none" stroke="#000000" points="16,-78 16,-130 178,-130 178,-78 16,-78"/>
</g>
<!-- AppComponent -->
<g id="node1" class="node">
<title>AppComponent</title>
<polygon fill="#ffffb3" stroke="#000000" points="1080.9399,-122 975.0601,-122 975.0601,-86 1080.9399,-86 1080.9399,-122"/>
<text text-anchor="middle" x="1028" y="-99.8" font-family="Times,serif" font-size="14.00" fill="#000000">AppComponent</text>
</g>
<!-- AppModule -->
<g id="node7" class="node">
<title>AppModule</title>
<polygon fill="#8dd3c7" stroke="#000000" points="658.6571,-187 655.6571,-191 634.6571,-191 631.6571,-187 575.3429,-187 575.3429,-151 658.6571,-151 658.6571,-187"/>
<text text-anchor="middle" x="617" y="-164.8" font-family="Times,serif" font-size="14.00" fill="#000000">AppModule</text>
</g>
<!-- AppComponent&#45;&gt;AppModule -->
<g id="edge1" class="edge">
<title>AppComponent&#45;&gt;AppModule</title>
<path fill="none" stroke="#000000" d="M1028,-122.2921C1028,-144.2057 1028,-178 1028,-178 1028,-178 668.6707,-178 668.6707,-178"/>
<polygon fill="#000000" stroke="#000000" points="668.6707,-174.5001 658.6707,-178 668.6706,-181.5001 668.6707,-174.5001"/>
</g>
<!-- HeaderComponent -->
<g id="node2" class="node">
<title>HeaderComponent</title>
<polygon fill="#ffffb3" stroke="#000000" points="956.7437,-122 835.2563,-122 835.2563,-86 956.7437,-86 956.7437,-122"/>
<text text-anchor="middle" x="896" y="-99.8" font-family="Times,serif" font-size="14.00" fill="#000000">HeaderComponent</text>
</g>
<!-- HeaderComponent&#45;&gt;AppModule -->
<g id="edge2" class="edge">
<title>HeaderComponent&#45;&gt;AppModule</title>
<path fill="none" stroke="#000000" d="M896,-122.1061C896,-141.3391 896,-169 896,-169 896,-169 668.7691,-169 668.7691,-169"/>
<polygon fill="#000000" stroke="#000000" points="668.7692,-165.5001 658.7691,-169 668.7691,-172.5001 668.7692,-165.5001"/>
</g>
<!-- FooterComponent -->
<g id="node3" class="node">
<title>FooterComponent</title>
<polygon fill="#ffffb3" stroke="#000000" points="816.8809,-122 699.1191,-122 699.1191,-86 816.8809,-86 816.8809,-122"/>
<text text-anchor="middle" x="758" y="-99.8" font-family="Times,serif" font-size="14.00" fill="#000000">FooterComponent</text>
</g>
<!-- FooterComponent&#45;&gt;AppModule -->
<g id="edge3" class="edge">
<title>FooterComponent&#45;&gt;AppModule</title>
<path fill="none" stroke="#000000" d="M758,-122.027C758,-138.3976 758,-160 758,-160 758,-160 668.9229,-160 668.9229,-160"/>
<polygon fill="#000000" stroke="#000000" points="668.9229,-156.5001 658.9229,-160 668.9229,-163.5001 668.9229,-156.5001"/>
</g>
<!-- WeatherComponent -->
<g id="node4" class="node">
<title>WeatherComponent</title>
<polygon fill="#ffffb3" stroke="#000000" points="681.2423,-122 552.7577,-122 552.7577,-86 681.2423,-86 681.2423,-122"/>
<text text-anchor="middle" x="617" y="-99.8" font-family="Times,serif" font-size="14.00" fill="#000000">WeatherComponent</text>
</g>
<!-- WeatherComponent&#45;&gt;AppModule -->
<g id="edge4" class="edge">
<title>WeatherComponent&#45;&gt;AppModule</title>
<path fill="none" stroke="#000000" d="M617,-122.1061C617,-122.1061 617,-140.991 617,-140.991"/>
<polygon fill="#000000" stroke="#000000" points="613.5001,-140.9909 617,-150.991 620.5001,-140.991 613.5001,-140.9909"/>
</g>
<!-- SearchweatherComponent -->
<g id="node5" class="node">
<title>SearchweatherComponent</title>
<polygon fill="#ffffb3" stroke="#000000" points="534.7212,-122 371.2788,-122 371.2788,-86 534.7212,-86 534.7212,-122"/>
<text text-anchor="middle" x="453" y="-99.8" font-family="Times,serif" font-size="14.00" fill="#000000">SearchweatherComponent</text>
</g>
<!-- SearchweatherComponent&#45;&gt;AppModule -->
<g id="edge5" class="edge">
<title>SearchweatherComponent&#45;&gt;AppModule</title>
<path fill="none" stroke="#000000" d="M453,-122.027C453,-138.3976 453,-160 453,-160 453,-160 565.1915,-160 565.1915,-160"/>
<polygon fill="#000000" stroke="#000000" points="565.1916,-163.5001 575.1915,-160 565.1915,-156.5001 565.1916,-163.5001"/>
</g>
<!-- PagenotfoundComponent -->
<g id="node6" class="node">
<title>PagenotfoundComponent</title>
<polygon fill="#ffffb3" stroke="#000000" points="353.5954,-122 194.4046,-122 194.4046,-86 353.5954,-86 353.5954,-122"/>
<text text-anchor="middle" x="274" y="-99.8" font-family="Times,serif" font-size="14.00" fill="#000000">PagenotfoundComponent</text>
</g>
<!-- PagenotfoundComponent&#45;&gt;AppModule -->
<g id="edge6" class="edge">
<title>PagenotfoundComponent&#45;&gt;AppModule</title>
<path fill="none" stroke="#000000" d="M274,-122.1061C274,-141.3391 274,-169 274,-169 274,-169 565.2844,-169 565.2844,-169"/>
<polygon fill="#000000" stroke="#000000" points="565.2844,-172.5001 575.2844,-169 565.2843,-165.5001 565.2844,-172.5001"/>
</g>
<!-- AppComponent  -->
<g id="node8" class="node">
<title>AppComponent </title>
<polygon fill="#80b1d3" stroke="#000000" points="671.439,-252 562.561,-252 562.561,-216 671.439,-216 671.439,-252"/>
<text text-anchor="middle" x="617" y="-229.8" font-family="Times,serif" font-size="14.00" fill="#000000">AppComponent </text>
</g>
<!-- AppModule&#45;&gt;AppComponent  -->
<g id="edge7" class="edge">
<title>AppModule&#45;&gt;AppComponent </title>
<path fill="none" stroke="#000000" stroke-dasharray="1,5" d="M617,-187.1061C617,-187.1061 617,-205.991 617,-205.991"/>
<polygon fill="#000000" stroke="#000000" points="613.5001,-205.9909 617,-215.991 620.5001,-205.991 613.5001,-205.9909"/>
</g>
<!-- WeatherService -->
<g id="node9" class="node">
<title>WeatherService</title>
<ellipse fill="#fdb462" stroke="#000000" cx="97" cy="-104" rx="72.8889" ry="18"/>
<text text-anchor="middle" x="97" y="-99.8" font-family="Times,serif" font-size="14.00" fill="#000000">WeatherService</text>
</g>
<!-- WeatherService&#45;&gt;AppModule -->
<g id="edge8" class="edge">
<title>WeatherService&#45;&gt;AppModule</title>
<path fill="none" stroke="#000000" d="M97,-122.2921C97,-144.2057 97,-178 97,-178 97,-178 565.3252,-178 565.3252,-178"/>
<polygon fill="#000000" stroke="#000000" points="565.3253,-181.5001 575.3252,-178 565.3252,-174.5001 565.3253,-181.5001"/>
</g>
</g>
</svg>
